Coordinates
version=1
nRows=13
nColumns=34
inDegrees=yes

Units are S.I. units (second, meters, Newtons, ...)
If the header above contains a line with 'inDegrees', this indicates whether rotational values are in degrees (yes) or radians (no).

endheader
time	pelvis_tilt	pelvis_list	pelvis_rotation	pelvis_tx	pelvis_ty	pelvis_tz	hip_flexion_r	hip_adduction_r	hip_rotation_r	knee_angle_r	ankle_angle_r	subtalar_angle_r	mtp_angle_r	hip_flexion_l	hip_adduction_l	hip_rotation_l	knee_angle_l	ankle_angle_l	subtalar_angle_l	mtp_angle_l	lumbar_extension	lumbar_bending	lumbar_rotation	arm_flex_r	arm_add_r	arm_rot_r	elbow_flex_r	pro_sup_r	arm_flex_l	arm_add_l	arm_rot_l	elbow_flex_l	pro_sup_l
      0.00000000	    -26.88549701	     18.25095096	    107.89226629	      0.04284004	      1.28425084	     -0.19760104	    -30.00000025	     18.65675722	    -39.99999995	      8.94024097	     50.00000000	    -35.00000000	      0.00000000	    -14.44211499	     21.79043490	     39.99999995	      0.00000000	     50.00000000	     35.00000000	      0.00000000	    -65.15240446	    -45.57749597	    -76.12735363	    -67.07427910	     40.36813575	    -18.55405278	    111.04382576	     89.95658780	     94.10400677	    -10.52768439	    121.90135971	     94.13442118	     38.07356342
      0.01666670	    -12.68288177	     23.41309960	     36.16441984	      0.09632046	      1.26378432	     -0.16504472	    -30.00000025	     -3.44697386	     21.40844743	     26.08766717	     50.00000000	    -35.00000000	      0.00000000	     -2.26734356	     24.61894898	     39.99999995	     17.99927753	     50.00000000	    -25.42934416	      0.00000000	    -17.14659812	    -46.21997136	    -72.87770380	    -22.06086106	     -9.93363184	     26.74991828	    102.72646398	     93.94751718	    -80.13953390	     -4.21640954	    -64.99524369	    150.00035077	    100.52945031
      0.03333330	    -64.22922101	     10.74247920	     23.14652322	      0.08137817	      1.16749929	     -0.17269033	     34.69533902	    -17.43176286	     39.99999995	     29.83114631	     50.00000000	    -35.00000000	      0.00000000	     62.19026040	     26.14743776	     18.36398492	     24.17307346	     50.00000000	    -35.00000000	      0.00000000	     77.85087372	    -37.74752854	     -7.35380265	    -49.30923577	    -15.09519139	      6.74034462	    126.85221531	     91.46055809	    -80.85221980	    -14.96357249	    -48.18856533	    150.00035077	    100.74054140
      0.05000000	    -49.23837524	     20.75722774	     23.72459600	      0.08470069	      1.17709396	     -0.16023525	     10.74686651	    -22.36305649	     33.07255693	     22.25719439	     50.00000000	    -35.00000000	      0.00000000	     45.50347452	     30.00000025	      4.51130058	     30.72475439	     50.00000000	    -21.89802075	      0.00000000	     52.94123118	    -48.89040281	    -12.59251711	    -39.67126407	    -11.56406402	     12.63229384	    120.24348039	     92.61173277	    -80.70206125	    -12.12955633	    -56.18180002	    150.00035077	     99.21568543
      0.06666670	    -47.02049202	     23.03247739	     23.83641107	      0.06930343	      1.16383838	     -0.15281995	      9.78699966	    -21.25222427	     31.70673741	     22.90661581	     50.00000000	    -35.00000000	      0.00000000	     45.37818245	     30.00000025	     -3.55598075	     36.98467037	     50.00000000	    -14.52955011	      0.00000000	     45.05170513	    -51.52709728	    -14.99348062	    -36.57118484	     -9.84110310	     13.18447751	    122.38806236	     92.44816737	    -79.77366538	    -11.10223263	    -60.96674521	    150.00035077	     98.16512509
      0.08333330	    -46.31929437	     23.16829517	     24.86040256	      0.06483140	      1.16360520	     -0.15012780	     10.80299789	    -19.07800078	     30.29574481	     25.63686094	     50.00000000	    -35.00000000	      0.00000000	     46.14162785	     30.00000025	     -7.42612416	     40.96622736	     50.00000000	    -10.13105326	      0.00000000	     40.42101682	    -52.74162527	    -17.26762194	    -34.79142824	     -8.86693180	     12.52401265	    123.39151102	     91.88331622	    -77.94082337	    -10.18210734	    -60.18679358	    150.00035077	     97.50542729
      0.10000000	    -46.27336935	     22.79674281	     25.49288837	      0.05937569	      1.15984336	     -0.14841981	     13.30735084	    -17.48644884	     29.29137546	     28.84469231	     50.00000000	    -35.00000000	      0.00000000	     48.27393410	     30.00000025	     -9.29268762	     43.64037705	     50.00000000	     -9.31119878	      0.00000000	     38.06534992	    -53.11926084	    -18.30947233	    -33.14288977	     -8.42176715	     11.30157614	    123.59264346	     91.30505009	    -74.98374234	     -8.84492368	    -58.39730891	    150.00035077	     97.24479075
      0.11666670	    -47.11144949	     21.95135101	     26.28829143	      0.05966411	      1.15916976	     -0.14914251	     15.29652909	    -16.25792935	     28.61669667	     31.37987749	     50.00000000	    -35.00000000	      0.00000000	     51.01439867	     30.00000025	    -10.33228307	     46.48177840	     50.00000000	    -10.19611795	      0.00000000	     38.33499309	    -53.19767045	    -18.61413915	    -32.02334086	     -8.24260221	      9.46626823	    123.38714510	     90.42377483	    -72.63028883	     -6.81979388	    -53.88172939	    150.00035077	     97.31308848
      0.13333330	    -48.51709795	     21.27507849	     26.98173130	      0.05581023	      1.15674675	     -0.14864209	     18.09766699	    -15.91342411	     28.24483560	     33.43447012	     50.00000000	    -35.00000000	      0.00000000	     54.00333375	     30.00000025	    -10.45148094	     49.00918362	     50.00000000	    -12.92171448	      0.00000000	     39.54702134	    -53.75135229	    -17.81098729	    -30.81051065	     -7.87979833	      8.06218579	    122.56102496	     88.97672549	    -70.04368031	     -4.96935879	    -47.65842775	    150.00035077	     98.02265789
      0.15000000	    -49.98584848	     20.52598996	     27.11276769	      0.05110615	      1.15069266	     -0.14890259	     21.20073372	    -15.87522983	     28.52933343	     35.86508412	     50.00000000	    -35.00000000	      0.00000000	     57.27038583	     30.00000025	    -10.64427836	     50.78517196	     50.00000000	    -15.39959558	      0.00000000	     41.46391626	    -53.83248299	    -15.57949992	    -29.42393056	     -7.71067118	      5.74441245	    121.95003828	     86.43956197	    -67.20247607	     -3.10360327	    -41.54314199	    150.00035077	    100.02423418
      0.16666670	    -52.28917681	     19.44568412	     27.47579881	      0.04747864	      1.14726731	     -0.15067251	     23.56981452	    -15.63881221	     28.66525281	     37.26556169	     50.00000000	    -35.00000000	      0.00000000	     60.99512704	     30.00000025	    -10.94469874	     53.43029266	     50.00000000	    -18.11424431	      0.00000000	     44.65249612	    -53.92159188	    -12.84810912	    -28.20039703	     -7.50328502	      3.43940242	    120.47192405	     85.07062007	    -65.24574202	     -0.41915367	    -37.16217703	    150.00035077	    101.14461599
      0.18333330	    -54.15321781	     20.46298062	     27.18787779	      0.04414711	      1.13700151	     -0.15078265	     25.16323766	    -16.46957418	     30.05259550	     37.59933542	     50.00000000	    -35.00000000	      0.00000000	     65.63899832	     30.00000025	    -13.69919120	     55.20414772	     50.00000000	    -18.56922508	      0.00000000	     47.63332274	    -54.62741187	     -8.48801410	    -26.89758747	     -7.74482117	      1.49460537	    120.18098631	     83.44467149	    -63.10273686	      1.22607847	    -34.31110775	    150.00035077	    102.29354017
      0.20000000	    -54.35460702	     21.90783619	     26.57833076	      0.04423859	      1.12924304	     -0.15022008	     25.35903866	    -17.17114771	     31.23058170	     37.77622557	     50.00000000	    -35.00000000	      0.00000000	     68.12259693	     30.00000025	    -15.39805818	     56.20364264	     50.00000000	    -19.58782439	      0.00000000	     47.77033359	    -55.64841212	     -5.88596984	    -25.15633714	     -8.00035624	     -0.48660995	    118.36568462	     82.48254923	    -60.63619693	      2.97778700	    -31.82058840	    150.00035077	    102.82775751
